<svg xmlns="http://www.w3.org/2000/svg" width="200.07" height="198.166" viewBox="0 0 200.07 198.166">
  <g id="dog_training" data-name="dog training" transform="translate(1.229 0.024)">
    <path id="Path_28" data-name="Path 28" d="M4,48.579s16.224,6.748,23.252,2.064L56.8,40.161,98.695,17.193,121.48,4.7s15.947-4.238,8.028,8.141c0,0-15.728,12.489-24.091,14.385" fill="none" stroke="#5c5351" stroke-linecap="round" stroke-miterlimit="10" stroke-width="8"/>
    <path id="Path_29" data-name="Path 29" d="M103.065,40.17c15.13,5.467,0,18.507,0,18.507L87.826,68.489A65.752,65.752,0,0,0,67.083,85.661c-9.589,11.931-16.614,19.182-26.874,24.978S35.635,118,10.88,111.864" transform="translate(-4.371 -22.977)" fill="none" stroke="#5c5351" stroke-linecap="round" stroke-miterlimit="10" stroke-width="8"/>
    <path id="Path_30" data-name="Path 30" d="M148.87,148.657l22.041-3.936s13.678-5.9-1.747-16.5" transform="translate(-92.03 -78.911)" fill="none" stroke="#5c5351" stroke-linecap="round" stroke-miterlimit="10" stroke-width="8"/>
    <path id="Path_31" data-name="Path 31" d="M357.563,298.681s-14.046-6.157-4.906-11.263c7.583-4.238,4.906,10.928,4.906,10.928" transform="translate(-219.524 -179.568)" fill="none" stroke="#5c5351" stroke-linecap="round" stroke-miterlimit="10" stroke-width="8"/>
    <path id="Path_32" data-name="Path 32" d="M423.029,393.239l-1.448-23.417s-27.21-2.229-30.777.781-19.069,1.561-10.147-16.392c0,0,25.758-30,24.978-36.131" transform="translate(-237.54 -199.521)" fill="none" stroke="#5c5351" stroke-linecap="round" stroke-miterlimit="10" stroke-width="8"/>
    <path id="Path_33" data-name="Path 33" d="M306.066,307.081c20.072-4.238,4.238-29.661,4.238-29.661L299.154,253s-3.9-7.47-22.191-14.721-30.332-3.68-30.332-3.68-6.467,4.016-18.733-3.567-16.392-11.708-16.392-11.708-18.066,8.174-16.282,30.573c0,0,2.787,14.48,11.373,23.4s19.069,21.075,17.73,26.874c0,0,3.235,20.407-.445,29.551" transform="translate(-121.398 -136.783)" fill="none" stroke="#5c5351" stroke-linecap="round" stroke-miterlimit="10" stroke-width="8"/>
    <path id="Path_34" data-name="Path 34" d="M213.64,235.871s9.83,12.026,15.888-2.881" transform="translate(-133.175 -145.467)" fill="none" stroke="#5c5351" stroke-linecap="round" stroke-miterlimit="10" stroke-width="8"/>
  </g>
</svg>
