<svg xmlns="http://www.w3.org/2000/svg" width="177.401" height="174.998" viewBox="0 0 177.401 174.998">
  <g id="hænder" transform="translate(-0.002)">
    <path id="Path_35" data-name="Path 35" d="M36.228,183.9v-30.6L8.069,100.285S3.785,97.127,4.011,86.3s0-49.4,0-49.4,8.686-16.915,17.028,0V81.339s-1.805,5.637,17.82,27.18" transform="translate(0 -12.899)" fill="none" stroke="#5c5351" stroke-linecap="round" stroke-miterlimit="10" stroke-width="8"/>
    <path id="Path_36" data-name="Path 36" d="M38.64,126.269s5.75-16.807,17.255-3.045,35.414,41.5,39.364,52.9v52.708" transform="translate(-17.601 -57.83)" fill="none" stroke="#5c5351" stroke-linecap="round" stroke-miterlimit="10" stroke-width="8"/>
    <ellipse id="Ellipse_37" data-name="Ellipse 37" cx="5.233" cy="6.502" rx="5.233" ry="6.502" transform="translate(50.512 21.294)" fill="none" stroke="#5c5351" stroke-miterlimit="10" stroke-width="8"/>
    <ellipse id="Ellipse_38" data-name="Ellipse 38" cx="5.829" cy="7.781" rx="5.829" ry="7.781" transform="translate(70.211 4)" fill="none" stroke="#5c5351" stroke-miterlimit="10" stroke-width="8"/>
    <ellipse id="Ellipse_39" data-name="Ellipse 39" cx="6.355" cy="8.16" rx="6.355" ry="8.16" transform="translate(95.252 4)" fill="none" stroke="#5c5351" stroke-miterlimit="10" stroke-width="8"/>
    <ellipse id="Ellipse_40" data-name="Ellipse 40" cx="4.889" cy="6.502" rx="4.889" ry="6.502" transform="translate(117.283 21.294)" fill="none" stroke="#5c5351" stroke-miterlimit="10" stroke-width="8"/>
    <path id="Path_37" data-name="Path 37" d="M147.637,55.52S122.4,60.355,119.655,83.266c-2.794,23.31,27.982,16.389,27.982,16.389" transform="translate(-58.676 -26.179)" fill="none" stroke="#5c5351" stroke-miterlimit="10" stroke-width="8"/>
    <path id="Path_38" data-name="Path 38" d="M175,55.52s26.089,4.835,28.833,27.746C206.627,106.576,175,99.675,175,99.675" transform="translate(-86.89 -26.179)" fill="none" stroke="#5c5351" stroke-miterlimit="10" stroke-width="8"/>
    <path id="Path_39" data-name="Path 39" d="M280.172,181.967v-30.6l28.159-53.008s4.284-3.158,4.058-13.984,0-49.4,0-49.4-8.686-16.915-17.028,0V79.409s1.805,5.637-17.82,27.18" transform="translate(-138.994 -11.919)" fill="none" stroke="#5c5351" stroke-linecap="round" stroke-miterlimit="10" stroke-width="8"/>
    <path id="Path_40" data-name="Path 40" d="M255.279,124.339s-5.75-16.807-17.255-3.045-35.414,41.5-39.364,52.9V226.9" transform="translate(-98.912 -56.849)" fill="none" stroke="#5c5351" stroke-linecap="round" stroke-miterlimit="10" stroke-width="8"/>
  </g>
</svg>
