<svg xmlns="http://www.w3.org/2000/svg" width="182.825" height="179.892" viewBox="0 0 182.825 179.892">
  <g id="Pasning-af-hund-Odsherred" transform="translate(0.003 -0.003)">
    <path id="Path_24" data-name="Path 24" d="M3.57,86.544l10.9,10.9L89.8,26.915l75.157,70.532,11.893-11.562L90.209,3.46Z" transform="translate(0)" fill="none" stroke="#5c5351" stroke-miterlimit="10" stroke-width="5"/>
    <path id="Path_25" data-name="Path 25" d="M70.82,229.77v84.824h99.829L169,322.19h53.852l-5.288-28.739H174.781l-4.131,21.143" transform="translate(-43.027 -144.796)" fill="none" stroke="#5c5351" stroke-miterlimit="10" stroke-width="5"/>
    <path id="Path_26" data-name="Path 26" d="M228.722,350.251V305.818s-.825-18.334-20.567-20.318c0,0-20.235,2.147-20.235,19.655v45.1" transform="translate(-117.95 -180.453)" fill="none" stroke="#5c5351" stroke-miterlimit="10" stroke-width="5"/>
    <line id="Line_57" data-name="Line 57" x1="42.182" transform="translate(27.793 153.773)" fill="none" stroke="#5c5351" stroke-miterlimit="10" stroke-width="5"/>
    <line id="Line_58" data-name="Line 58" x2="19.875" transform="translate(110.772 153.773)" fill="none" stroke="#5c5351" stroke-miterlimit="10" stroke-width="5"/>
    <line id="Line_59" data-name="Line 59" x2="0.547" y2="63.649" transform="translate(151.74 85.006)" fill="none" stroke="#5c5351" stroke-miterlimit="10" stroke-width="5"/>
    <path id="Path_27" data-name="Path 27" d="M191.551,196.03a6.754,6.754,0,0,1-2.089-4.895,6.584,6.584,0,0,1,2.024-4.866,1.553,1.553,0,0,1,.573-.4c.173-.058.259-.155.259-.3s-.09-.238-.263-.3a1.639,1.639,0,0,1-.576-.4,6.754,6.754,0,0,1-2.089-4.895,6.911,6.911,0,0,1,6.89-6.89,6.754,6.754,0,0,1,4.895,2.089,7,7,0,0,1,1.268,1.682,20.53,20.53,0,0,1,.591,3.429l11.677.018a19.371,19.371,0,0,1,.562-3.361,6.724,6.724,0,0,1,1.243-1.664,6.589,6.589,0,0,1,4.866-2.024,7.138,7.138,0,0,1,6.984,6.984,6.584,6.584,0,0,1-2.024,4.866,1.551,1.551,0,0,1-.573.4c-.173.058-.259.155-.259.3s.09.238.263.3a1.639,1.639,0,0,1,.576.4,6.754,6.754,0,0,1,2.089,4.895,6.911,6.911,0,0,1-6.89,6.89,6.754,6.754,0,0,1-4.895-2.089,7,7,0,0,1-1.268-1.682,11.912,11.912,0,0,1-.641-2.6l-11.573-.249a13.145,13.145,0,0,1-.616,2.759,6.723,6.723,0,0,1-1.243,1.664,6.589,6.589,0,0,1-4.866,2.024A6.753,6.753,0,0,1,191.551,196.03Z" transform="translate(-118.89 -108.531)" fill="none" stroke="#5c5351" stroke-miterlimit="10" stroke-width="5"/>
  </g>
</svg>
