<?xml version="1.0" encoding="UTF-8"?>
<svg id="Layer_1" data-name="Layer 1" xmlns="http://www.w3.org/2000/svg" viewBox="0 0 531.22 528.14">
  <path d="m4,126.22s44.48,18.5,63.75,5.66l81.02-28.74,114.85-62.97,62.47-34.25s43.72-11.62,22.01,22.32c0,0-43.12,34.24-66.05,39.44" fill="none" stroke="#000" stroke-linecap="round" stroke-miterlimit="10" stroke-width="8"/>
  <path d="m263.62,40.17c41.48,14.99,0,50.74,0,50.74l-41.78,26.9s-30.57,14.37-56.87,47.08c-26.29,32.71-45.55,52.59-73.68,68.48-28.13,15.9-12.54,20.18-80.41,3.36" fill="none" stroke="#000" stroke-linecap="round" stroke-miterlimit="10" stroke-width="8"/>
  <path d="m148.87,184.25l60.43-10.79s37.5-16.18-4.79-45.24" fill="none" stroke="#000" stroke-linecap="round" stroke-miterlimit="10" stroke-width="8"/>
  <path d="m371.49,319.6s-38.51-16.88-13.45-30.88c20.79-11.62,13.45,29.96,13.45,29.96" fill="none" stroke="#000" stroke-linecap="round" stroke-miterlimit="10" stroke-width="8"/>
  <path d="m501.58,524.14l-3.97-64.2s-74.6-6.11-84.38,2.14c-9.78,8.25-52.28,4.28-27.82-44.94,0,0,70.62-82.24,68.48-99.06" fill="none" stroke="#000" stroke-linecap="round" stroke-miterlimit="10" stroke-width="8"/>
  <path d="m499.33,459.93c55.03-11.62,11.62-81.32,11.62-81.32l-30.57-66.96s-10.7-20.48-60.84-40.36c-50.14-19.87-83.16-10.09-83.16-10.09,0,0-17.73,11.01-51.36-9.78-33.63-20.79-44.94-32.1-44.94-32.1,0,0-49.53,22.41-44.64,83.82,0,0,7.64,39.7,31.18,64.16,23.54,24.46,52.28,57.78,48.61,73.68,0,0,8.87,55.95-1.22,81.02" fill="none" stroke="#000" stroke-linecap="round" stroke-miterlimit="10" stroke-width="8"/>
  <path d="m213.64,240.89s26.95,32.97,43.56-7.9" fill="none" stroke="#000" stroke-linecap="round" stroke-miterlimit="10" stroke-width="8"/>
</svg>