<?xml version="1.0" encoding="UTF-8"?>
<svg id="Layer_1" data-name="Layer 1" xmlns="http://www.w3.org/2000/svg" viewBox="0 0 495.9 488.86">
  <polygon points="3.57 234.13 33.84 264.4 242.96 68.58 451.62 264.4 484.64 232.3 244.11 3.46 3.57 234.13" fill="none" stroke="#000" stroke-miterlimit="10" stroke-width="5"/>
  <polyline points="70.82 229.77 70.82 465.27 347.98 465.27 343.39 486.36 492.9 486.36 478.22 406.57 359.45 406.57 347.98 465.27" fill="none" stroke="#000" stroke-miterlimit="10" stroke-width="5"/>
  <path d="m301.2,465.27v-123.36s-2.29-50.9-57.1-56.41c0,0-56.18,5.96-56.18,54.57v125.2" fill="none" stroke="#000" stroke-miterlimit="10" stroke-width="5"/>
  <line x1="187.93" y1="420.78" x2="70.82" y2="420.78" fill="none" stroke="#000" stroke-miterlimit="10" stroke-width="5"/>
  <line x1="301.2" y1="420.78" x2="356.38" y2="420.78" fill="none" stroke="#000" stroke-miterlimit="10" stroke-width="5"/>
  <line x1="414.94" y1="229.86" x2="416.46" y2="406.57" fill="none" stroke="#000" stroke-miterlimit="10" stroke-width="5"/>
  <path d="m195.39,236.78c-3.83-3.83-5.77-8.36-5.8-13.59-.03-5.23,1.84-9.73,5.62-13.51.58-.58,1.11-.94,1.59-1.1s.72-.43.72-.82-.25-.66-.73-.83-1.02-.54-1.6-1.12c-3.83-3.83-5.77-8.36-5.8-13.59s1.84-9.73,5.62-13.51,8.29-5.65,13.51-5.62c5.23.03,9.76,1.97,13.59,5.8,1.49,1.49,2.67,3.05,3.52,4.67.85,1.62,1.3,7.64,1.64,9.52l32.42.05c.31-1.87.73-7.72,1.56-9.33.83-1.61,1.98-3.15,3.45-4.62,3.78-3.78,8.29-5.65,13.51-5.62,5.23.03,9.76,1.97,13.59,5.8,3.83,3.83,5.77,8.36,5.8,13.59s-1.84,9.73-5.62,13.51c-.58.58-1.11.94-1.59,1.1s-.72.43-.72.82.25.66.73.83,1.02.54,1.6,1.12c3.83,3.83,5.77,8.36,5.8,13.59s-1.84,9.73-5.62,13.51c-3.78,3.78-8.29,5.65-13.51,5.62-5.23-.03-9.76-1.97-13.59-5.8-1.49-1.49-2.67-3.05-3.52-4.67-.85-1.62-1.44-5.33-1.78-7.21l-32.13-.69c-.31,1.87-.88,6.05-1.71,7.66-.83,1.61-1.98,3.15-3.45,4.62-3.78,3.78-8.29,5.65-13.51,5.62-5.23-.03-9.76-1.97-13.59-5.8Z" fill="none" stroke="#000" stroke-miterlimit="10" stroke-width="5"/>
</svg>